<mxfile host="Electron" modified="2024-03-14T08:05:24.929Z" agent="Mozilla/5.0 (Macintosh; Intel Mac OS X 10_15_7) AppleWebKit/537.36 (KHTML, like Gecko) draw.io/24.0.4 Chrome/120.0.6099.109 Electron/28.1.0 Safari/537.36" etag="_WZNdd0hNcJEQo2f1Iil" version="24.0.4" type="device">
  <diagram name="Page-1" id="FT735GZapsdS1CUipuoK">
    <mxGraphModel dx="1026" dy="1941" grid="1" gridSize="10" guides="1" tooltips="1" connect="1" arrows="1" fold="1" page="1" pageScale="1" pageWidth="827" pageHeight="1169" math="0" shadow="0">
      <root>
        <mxCell id="0" />
        <mxCell id="1" parent="0" />
        <mxCell id="okOCDHLRPJiZz7jQsN5--1" value="Data" style="verticalAlign=top;align=left;spacingTop=8;spacingLeft=2;spacingRight=12;shape=cube;size=10;direction=south;fontStyle=4;html=1;whiteSpace=wrap;" parent="1" vertex="1">
          <mxGeometry x="290" y="-940" width="1860" height="1060" as="geometry" />
        </mxCell>
        <mxCell id="okOCDHLRPJiZz7jQsN5--4" value="&lt;p style=&quot;margin:0px;margin-top:4px;text-align:center;&quot;&gt;&lt;i&gt;&amp;lt;&amp;lt;Interface&amp;gt;&amp;gt;&lt;/i&gt;&lt;br&gt;&lt;b&gt;LocalDatabase&lt;/b&gt;&lt;/p&gt;&lt;hr size=&quot;1&quot;&gt;&lt;p style=&quot;margin:0px;margin-left:4px;&quot;&gt;&lt;br&gt;&lt;/p&gt;&lt;hr size=&quot;1&quot;&gt;&lt;p style=&quot;margin:0px;margin-left:4px;&quot;&gt;&lt;span style=&quot;background-color: initial;&quot;&gt;+ actionsByTransaction&amp;lt;T&amp;gt;({required AsyncValueGetter&amp;lt;T&amp;gt; asyncCallback}): Future&amp;lt;T?&amp;gt;&lt;/span&gt;&lt;br&gt;&lt;/p&gt;&lt;p style=&quot;margin:0px;margin-left:4px;&quot;&gt;+ addModel&amp;lt;T&amp;gt;(T model): Future&amp;lt;int&amp;gt;&lt;br style=&quot;border-color: var(--border-color);&quot;&gt;+ addModels&amp;lt;T&amp;gt;(List&amp;lt;T&amp;gt;&amp;nbsp;models): Future&amp;lt;List&amp;lt;int&amp;gt;&amp;gt;&lt;br style=&quot;border-color: var(--border-color);&quot;&gt;+ getModelById&amp;lt;T&amp;gt;(int id): Future&amp;lt;T?&amp;gt;&lt;br style=&quot;border-color: var(--border-color);&quot;&gt;+ getModelStreamById&amp;lt;T&amp;gt;(int id): Stream&amp;lt;T?&amp;gt;&lt;br style=&quot;border-color: var(--border-color);&quot;&gt;+ getModels&amp;lt;T&amp;gt;(): Future&amp;lt;List&amp;lt;T&amp;gt;&amp;gt;&lt;br style=&quot;border-color: var(--border-color);&quot;&gt;+ getModelsStream&amp;lt;T&amp;gt;(): Stream&amp;lt;void&amp;gt;&lt;br style=&quot;border-color: var(--border-color);&quot;&gt;+ updateModel&amp;lt;T&amp;gt;(T model): Future&amp;lt;int&amp;gt;&lt;br style=&quot;border-color: var(--border-color);&quot;&gt;+ updateModels&amp;lt;T&amp;gt;(List&amp;lt;T&amp;gt;&amp;nbsp;models): Future&amp;lt;List&amp;lt;int&amp;gt;&amp;gt;&lt;br style=&quot;border-color: var(--border-color);&quot;&gt;+ deleteModelById&amp;lt;T&amp;gt;(int id): Future&amp;lt;bool&amp;gt;&lt;br style=&quot;border-color: var(--border-color);&quot;&gt;+ deleteModelsByIds&amp;lt;T&amp;gt;(List&amp;lt;int&amp;gt; ids): Future&amp;lt;int&amp;gt;&lt;br style=&quot;border-color: var(--border-color);&quot;&gt;+ deleteModels&amp;lt;T&amp;gt;(): Future&amp;lt;void&amp;gt;&lt;br&gt;&lt;/p&gt;" style="verticalAlign=top;align=left;overflow=fill;html=1;whiteSpace=wrap;fillColor=#d5e8d4;strokeColor=#82b366;" parent="1" vertex="1">
          <mxGeometry x="357.5" y="-730" width="485" height="250" as="geometry" />
        </mxCell>
        <mxCell id="okOCDHLRPJiZz7jQsN5--5" value="&lt;p style=&quot;margin:0px;margin-top:4px;text-align:center;&quot;&gt;&lt;b&gt;LocalDatabaseByIsar&lt;/b&gt;&lt;/p&gt;&lt;hr size=&quot;1&quot;&gt;&lt;p style=&quot;margin:0px;margin-left:4px;&quot;&gt;- _isar: Isar&lt;/p&gt;&lt;hr size=&quot;1&quot;&gt;&lt;p style=&quot;margin:0px;margin-left:4px;&quot;&gt;&lt;br&gt;&lt;/p&gt;" style="verticalAlign=top;align=left;overflow=fill;html=1;whiteSpace=wrap;fillColor=#dae8fc;strokeColor=#6c8ebf;" parent="1" vertex="1">
          <mxGeometry x="520" y="-880" width="160" height="80" as="geometry" />
        </mxCell>
        <mxCell id="okOCDHLRPJiZz7jQsN5--6" value="&lt;p style=&quot;margin:0px;margin-top:4px;text-align:center;&quot;&gt;&lt;i&gt;&amp;lt;&amp;lt;Interface&amp;gt;&amp;gt;&lt;/i&gt;&lt;br&gt;&lt;b&gt;ComicCharacterLocalDatabase&lt;/b&gt;&lt;/p&gt;&lt;hr size=&quot;1&quot;&gt;&lt;p style=&quot;margin:0px;margin-left:4px;&quot;&gt;&lt;br&gt;&lt;/p&gt;&lt;hr size=&quot;1&quot;&gt;&lt;p style=&quot;margin:0px;margin-left:4px;&quot;&gt;&lt;span style=&quot;background-color: initial;&quot;&gt;+ addModelsAfterResetByTransaction(List&amp;lt;ComicCharacterModel&amp;gt; models): Future&amp;lt;bool&amp;gt;&lt;/span&gt;&lt;br&gt;&lt;/p&gt;&lt;p style=&quot;margin:0px;margin-left:4px;&quot;&gt;+ getModels(): Future&amp;lt;List&amp;lt;ComicCharacterModel&amp;gt;&amp;gt;&lt;br&gt;&lt;/p&gt;" style="verticalAlign=top;align=left;overflow=fill;html=1;whiteSpace=wrap;fillColor=#d5e8d4;strokeColor=#82b366;" parent="1" vertex="1">
          <mxGeometry x="350" y="-280" width="500" height="115" as="geometry" />
        </mxCell>
        <mxCell id="okOCDHLRPJiZz7jQsN5--7" value="&lt;p style=&quot;margin:0px;margin-top:4px;text-align:center;&quot;&gt;&lt;b&gt;ComicCharacterLocalDatabaseImpl&lt;/b&gt;&lt;/p&gt;&lt;hr size=&quot;1&quot;&gt;&lt;p style=&quot;margin:0px;margin-left:4px;&quot;&gt;- _localDatabase: LocalDatabase&lt;/p&gt;&lt;hr size=&quot;1&quot;&gt;&lt;p style=&quot;margin:0px;margin-left:4px;&quot;&gt;&lt;br&gt;&lt;/p&gt;" style="verticalAlign=top;align=left;overflow=fill;html=1;whiteSpace=wrap;fillColor=#dae8fc;strokeColor=#6c8ebf;" parent="1" vertex="1">
          <mxGeometry x="495" y="-410" width="210" height="80" as="geometry" />
        </mxCell>
        <mxCell id="okOCDHLRPJiZz7jQsN5--8" value="&lt;p style=&quot;margin:0px;margin-top:4px;text-align:center;&quot;&gt;&lt;i&gt;&amp;lt;&amp;lt;Interface&amp;gt;&amp;gt;&lt;/i&gt;&lt;br&gt;&lt;b&gt;RemoteApi&lt;/b&gt;&lt;/p&gt;&lt;hr size=&quot;1&quot;&gt;&lt;p style=&quot;margin:0px;margin-left:4px;&quot;&gt;&lt;br&gt;&lt;/p&gt;&lt;hr size=&quot;1&quot;&gt;&lt;p style=&quot;margin:0px;margin-left:4px;&quot;&gt;+ get&amp;lt;T&amp;gt;({required String endPoint, Map&amp;lt;String, dynamic&amp;gt;? queryParameters, List&amp;lt;T&amp;gt; Function(Map&amp;lt;String, dynamic&amp;gt;) on200}): Future&amp;lt;List&amp;lt;int&amp;gt;&amp;gt;&lt;br&gt;&lt;/p&gt;" style="verticalAlign=top;align=left;overflow=fill;html=1;whiteSpace=wrap;fillColor=#d5e8d4;strokeColor=#82b366;" parent="1" vertex="1">
          <mxGeometry x="880" y="-730" width="800" height="100" as="geometry" />
        </mxCell>
        <mxCell id="okOCDHLRPJiZz7jQsN5--9" value="&lt;p style=&quot;margin:0px;margin-top:4px;text-align:center;&quot;&gt;&lt;b&gt;RemoteApiByDio&lt;/b&gt;&lt;/p&gt;&lt;hr size=&quot;1&quot;&gt;&lt;p style=&quot;margin:0px;margin-left:4px;&quot;&gt;- _dio: Dio&lt;/p&gt;&lt;hr size=&quot;1&quot;&gt;&lt;p style=&quot;margin:0px;margin-left:4px;&quot;&gt;&lt;br&gt;&lt;/p&gt;" style="verticalAlign=top;align=left;overflow=fill;html=1;whiteSpace=wrap;fillColor=#dae8fc;strokeColor=#6c8ebf;" parent="1" vertex="1">
          <mxGeometry x="1200" y="-880" width="160" height="80" as="geometry" />
        </mxCell>
        <mxCell id="okOCDHLRPJiZz7jQsN5--10" value="" style="endArrow=block;dashed=1;endFill=0;endSize=12;html=1;rounded=0;exitX=0.5;exitY=1;exitDx=0;exitDy=0;entryX=0.5;entryY=0;entryDx=0;entryDy=0;" parent="1" source="okOCDHLRPJiZz7jQsN5--5" target="okOCDHLRPJiZz7jQsN5--4" edge="1">
          <mxGeometry width="160" relative="1" as="geometry">
            <mxPoint x="880" y="-450" as="sourcePoint" />
            <mxPoint x="1040" y="-450" as="targetPoint" />
          </mxGeometry>
        </mxCell>
        <mxCell id="okOCDHLRPJiZz7jQsN5--11" value="" style="endArrow=block;dashed=1;endFill=0;endSize=12;html=1;rounded=0;exitX=0.5;exitY=1;exitDx=0;exitDy=0;entryX=0.5;entryY=0;entryDx=0;entryDy=0;" parent="1" source="okOCDHLRPJiZz7jQsN5--9" target="okOCDHLRPJiZz7jQsN5--8" edge="1">
          <mxGeometry width="160" relative="1" as="geometry">
            <mxPoint x="610" y="-800" as="sourcePoint" />
            <mxPoint x="610" y="-720" as="targetPoint" />
          </mxGeometry>
        </mxCell>
        <mxCell id="okOCDHLRPJiZz7jQsN5--12" value="" style="endArrow=block;dashed=1;endFill=0;endSize=12;html=1;rounded=0;exitX=0.5;exitY=1;exitDx=0;exitDy=0;entryX=0.5;entryY=0;entryDx=0;entryDy=0;" parent="1" source="okOCDHLRPJiZz7jQsN5--7" target="okOCDHLRPJiZz7jQsN5--6" edge="1">
          <mxGeometry width="160" relative="1" as="geometry">
            <mxPoint x="610" y="-800" as="sourcePoint" />
            <mxPoint x="610" y="-720" as="targetPoint" />
          </mxGeometry>
        </mxCell>
        <mxCell id="okOCDHLRPJiZz7jQsN5--13" value="Use" style="endArrow=open;endSize=12;dashed=1;html=1;rounded=0;exitX=0.5;exitY=0;exitDx=0;exitDy=0;entryX=0.5;entryY=1;entryDx=0;entryDy=0;" parent="1" source="okOCDHLRPJiZz7jQsN5--7" target="okOCDHLRPJiZz7jQsN5--4" edge="1">
          <mxGeometry width="160" relative="1" as="geometry">
            <mxPoint x="880" y="-450" as="sourcePoint" />
            <mxPoint x="1040" y="-450" as="targetPoint" />
          </mxGeometry>
        </mxCell>
        <mxCell id="okOCDHLRPJiZz7jQsN5--14" value="&lt;p style=&quot;margin:0px;margin-top:4px;text-align:center;&quot;&gt;&lt;i&gt;&amp;lt;&amp;lt;Interface&amp;gt;&amp;gt;&lt;/i&gt;&lt;br&gt;&lt;b&gt;ComicCharacterRemoteApi&lt;/b&gt;&lt;/p&gt;&lt;hr size=&quot;1&quot;&gt;&lt;p style=&quot;margin:0px;margin-left:4px;&quot;&gt;&lt;br&gt;&lt;/p&gt;&lt;hr size=&quot;1&quot;&gt;&lt;p style=&quot;margin:0px;margin-left:4px;&quot;&gt;+ getModels(): Future&amp;lt;List&amp;lt;ComicCharacterModel&amp;gt;&amp;gt;&lt;br&gt;&lt;/p&gt;" style="verticalAlign=top;align=left;overflow=fill;html=1;whiteSpace=wrap;fillColor=#d5e8d4;strokeColor=#82b366;" parent="1" vertex="1">
          <mxGeometry x="1135" y="-280" width="290" height="105" as="geometry" />
        </mxCell>
        <mxCell id="okOCDHLRPJiZz7jQsN5--15" value="&lt;p style=&quot;margin:0px;margin-top:4px;text-align:center;&quot;&gt;&lt;b&gt;ComicCharacterRemoteApiImpl&lt;/b&gt;&lt;/p&gt;&lt;hr size=&quot;1&quot;&gt;&lt;p style=&quot;margin:0px;margin-left:4px;&quot;&gt;- _remoteApi: RemoteApi&lt;/p&gt;&lt;hr size=&quot;1&quot;&gt;&lt;p style=&quot;margin:0px;margin-left:4px;&quot;&gt;&lt;br&gt;&lt;/p&gt;" style="verticalAlign=top;align=left;overflow=fill;html=1;whiteSpace=wrap;fillColor=#dae8fc;strokeColor=#6c8ebf;" parent="1" vertex="1">
          <mxGeometry x="1175" y="-420" width="210" height="80" as="geometry" />
        </mxCell>
        <mxCell id="okOCDHLRPJiZz7jQsN5--16" value="" style="endArrow=block;dashed=1;endFill=0;endSize=12;html=1;rounded=0;exitX=0.5;exitY=1;exitDx=0;exitDy=0;entryX=0.5;entryY=0;entryDx=0;entryDy=0;" parent="1" source="okOCDHLRPJiZz7jQsN5--15" target="okOCDHLRPJiZz7jQsN5--14" edge="1">
          <mxGeometry width="160" relative="1" as="geometry">
            <mxPoint x="395" y="-170" as="sourcePoint" />
            <mxPoint x="520" y="-212" as="targetPoint" />
          </mxGeometry>
        </mxCell>
        <mxCell id="okOCDHLRPJiZz7jQsN5--17" value="Use" style="endArrow=open;endSize=12;dashed=1;html=1;rounded=0;entryX=0.5;entryY=1;entryDx=0;entryDy=0;exitX=0.5;exitY=0;exitDx=0;exitDy=0;" parent="1" source="okOCDHLRPJiZz7jQsN5--15" target="okOCDHLRPJiZz7jQsN5--8" edge="1">
          <mxGeometry width="160" relative="1" as="geometry">
            <mxPoint x="1780" y="-190" as="sourcePoint" />
            <mxPoint x="610" y="-470" as="targetPoint" />
          </mxGeometry>
        </mxCell>
        <mxCell id="okOCDHLRPJiZz7jQsN5--19" value="&lt;p style=&quot;margin:0px;margin-top:4px;text-align:center;&quot;&gt;&lt;i&gt;&amp;lt;&amp;lt;Interface&amp;gt;&amp;gt;&lt;/i&gt;&lt;br&gt;&lt;b&gt;NetworkInfo&lt;/b&gt;&lt;/p&gt;&lt;hr size=&quot;1&quot;&gt;&lt;p style=&quot;margin:0px;margin-left:4px;&quot;&gt;+ isConnected: Future&amp;lt;bool&amp;gt;&lt;/p&gt;&lt;hr size=&quot;1&quot;&gt;&lt;p style=&quot;margin:0px;margin-left:4px;&quot;&gt;&lt;br&gt;&lt;/p&gt;" style="verticalAlign=top;align=left;overflow=fill;html=1;whiteSpace=wrap;fillColor=#d5e8d4;strokeColor=#82b366;" parent="1" vertex="1">
          <mxGeometry x="1825" y="-730" width="170" height="90" as="geometry" />
        </mxCell>
        <mxCell id="okOCDHLRPJiZz7jQsN5--20" value="&lt;p style=&quot;margin:0px;margin-top:4px;text-align:center;&quot;&gt;&lt;b&gt;NetworkInfoBy&lt;/b&gt;&lt;span style=&quot;background-color: initial; text-align: left;&quot;&gt;&lt;b&gt;InternetConnectionChecker&lt;/b&gt;&lt;/span&gt;&lt;/p&gt;&lt;hr size=&quot;1&quot;&gt;&lt;p style=&quot;margin:0px;margin-left:4px;&quot;&gt;- _connectionChecker: InternetConnectionChecker&lt;/p&gt;&lt;hr size=&quot;1&quot;&gt;&lt;p style=&quot;margin:0px;margin-left:4px;&quot;&gt;&lt;br&gt;&lt;/p&gt;" style="verticalAlign=top;align=left;overflow=fill;html=1;whiteSpace=wrap;fillColor=#dae8fc;strokeColor=#6c8ebf;" parent="1" vertex="1">
          <mxGeometry x="1770" y="-880" width="280" height="80" as="geometry" />
        </mxCell>
        <mxCell id="okOCDHLRPJiZz7jQsN5--22" value="&lt;p style=&quot;margin:0px;margin-top:4px;text-align:center;&quot;&gt;&lt;b&gt;ComicCharacterRepositoryImpl&lt;/b&gt;&lt;/p&gt;&lt;hr size=&quot;1&quot;&gt;&lt;p style=&quot;margin:0px;margin-left:4px;&quot;&gt;- _networkInfo: NetworkInfo&lt;/p&gt;&lt;p style=&quot;margin:0px;margin-left:4px;&quot;&gt;- _remoteApi: ComicCharacterRemoteApi&lt;/p&gt;&lt;p style=&quot;margin:0px;margin-left:4px;&quot;&gt;- _localDatabase: ComicCharacterLocalDatabase&lt;/p&gt;&lt;hr size=&quot;1&quot;&gt;&lt;p style=&quot;margin:0px;margin-left:4px;&quot;&gt;&lt;br&gt;&lt;/p&gt;" style="verticalAlign=top;align=left;overflow=fill;html=1;whiteSpace=wrap;fillColor=#dae8fc;strokeColor=#6c8ebf;" parent="1" vertex="1">
          <mxGeometry x="1140" y="-70" width="280" height="110" as="geometry" />
        </mxCell>
        <mxCell id="okOCDHLRPJiZz7jQsN5--24" value="" style="endArrow=block;dashed=1;endFill=0;endSize=12;html=1;rounded=0;entryX=0.5;entryY=0;entryDx=0;entryDy=0;exitX=0.5;exitY=1;exitDx=0;exitDy=0;" parent="1" source="okOCDHLRPJiZz7jQsN5--20" target="okOCDHLRPJiZz7jQsN5--19" edge="1">
          <mxGeometry width="160" relative="1" as="geometry">
            <mxPoint x="1710" y="-1210" as="sourcePoint" />
            <mxPoint x="1710" y="-1155" as="targetPoint" />
          </mxGeometry>
        </mxCell>
        <mxCell id="NxtE4lgiZFWR2UySTpji-1" value="Use" style="endArrow=open;endSize=12;dashed=1;html=1;rounded=0;entryX=0.5;entryY=1;entryDx=0;entryDy=0;exitX=0;exitY=0.5;exitDx=0;exitDy=0;edgeStyle=orthogonalEdgeStyle;" parent="1" source="okOCDHLRPJiZz7jQsN5--22" target="okOCDHLRPJiZz7jQsN5--6" edge="1">
          <mxGeometry width="160" relative="1" as="geometry">
            <mxPoint x="1290" y="-410" as="sourcePoint" />
            <mxPoint x="1290" y="-620" as="targetPoint" />
          </mxGeometry>
        </mxCell>
        <mxCell id="NxtE4lgiZFWR2UySTpji-2" value="Use" style="endArrow=open;endSize=12;dashed=1;html=1;rounded=0;exitX=0.5;exitY=0;exitDx=0;exitDy=0;entryX=0.5;entryY=1;entryDx=0;entryDy=0;" parent="1" source="okOCDHLRPJiZz7jQsN5--22" target="okOCDHLRPJiZz7jQsN5--14" edge="1">
          <mxGeometry width="160" relative="1" as="geometry">
            <mxPoint x="1290" y="-410" as="sourcePoint" />
            <mxPoint x="1280" y="-190" as="targetPoint" />
          </mxGeometry>
        </mxCell>
        <mxCell id="NxtE4lgiZFWR2UySTpji-3" value="Use" style="endArrow=open;endSize=12;dashed=1;html=1;rounded=0;entryX=0.5;entryY=1;entryDx=0;entryDy=0;exitX=1;exitY=0.5;exitDx=0;exitDy=0;edgeStyle=orthogonalEdgeStyle;" parent="1" source="okOCDHLRPJiZz7jQsN5--22" target="okOCDHLRPJiZz7jQsN5--19" edge="1">
          <mxGeometry width="160" relative="1" as="geometry">
            <mxPoint x="1150" y="-5" as="sourcePoint" />
            <mxPoint x="610" y="-155" as="targetPoint" />
          </mxGeometry>
        </mxCell>
        <mxCell id="tJJGAUzT6cWzQBmBwBKc-1" value="Domain" style="verticalAlign=top;align=left;spacingTop=8;spacingLeft=2;spacingRight=12;shape=cube;size=10;direction=south;fontStyle=4;html=1;whiteSpace=wrap;" parent="1" vertex="1">
          <mxGeometry x="290" y="140" width="1860" height="570" as="geometry" />
        </mxCell>
        <mxCell id="tJJGAUzT6cWzQBmBwBKc-3" value="&lt;p style=&quot;margin:0px;margin-top:4px;text-align:center;&quot;&gt;&lt;i&gt;&amp;lt;&amp;lt;Interface&amp;gt;&amp;gt;&lt;/i&gt;&lt;br&gt;&lt;b&gt;ComicCharacterRepository&lt;/b&gt;&lt;/p&gt;&lt;hr size=&quot;1&quot;&gt;&lt;p style=&quot;margin:0px;margin-left:4px;&quot;&gt;&lt;br&gt;&lt;/p&gt;&lt;hr size=&quot;1&quot;&gt;&lt;p style=&quot;margin:0px;margin-left:4px;&quot;&gt;&lt;span style=&quot;background-color: initial;&quot;&gt;+ getComicCharacters(): Future&amp;lt;Result&amp;lt;List&amp;lt;ComicCharacterEntity&amp;gt;&amp;gt;&amp;gt;&lt;/span&gt;&lt;br&gt;&lt;/p&gt;" style="verticalAlign=top;align=left;overflow=fill;html=1;whiteSpace=wrap;fillColor=#d5e8d4;strokeColor=#82b366;" parent="1" vertex="1">
          <mxGeometry x="1075" y="206" width="410" height="105" as="geometry" />
        </mxCell>
        <mxCell id="tJJGAUzT6cWzQBmBwBKc-4" value="&lt;p style=&quot;margin:0px;margin-top:4px;text-align:center;&quot;&gt;&lt;i&gt;&amp;lt;&amp;lt;Interface&amp;gt;&amp;gt;&lt;/i&gt;&lt;br&gt;&lt;b&gt;UseCase&amp;lt;T&amp;gt;&lt;/b&gt;&lt;/p&gt;&lt;hr size=&quot;1&quot;&gt;&lt;p style=&quot;margin:0px;margin-left:4px;&quot;&gt;&lt;br&gt;&lt;/p&gt;&lt;hr size=&quot;1&quot;&gt;&lt;p style=&quot;margin:0px;margin-left:4px;&quot;&gt;&lt;span style=&quot;background-color: initial;&quot;&gt;+ call(): Future&amp;lt;Result&amp;lt;T&amp;gt;&amp;gt;&lt;/span&gt;&lt;br&gt;&lt;/p&gt;" style="verticalAlign=top;align=left;overflow=fill;html=1;whiteSpace=wrap;fillColor=#d5e8d4;strokeColor=#82b366;" parent="1" vertex="1">
          <mxGeometry x="1075" y="540" width="410" height="105" as="geometry" />
        </mxCell>
        <mxCell id="tJJGAUzT6cWzQBmBwBKc-5" value="&lt;p style=&quot;margin:0px;margin-top:4px;text-align:center;&quot;&gt;&lt;b&gt;GetComicCharacters&lt;/b&gt;&lt;/p&gt;&lt;hr size=&quot;1&quot;&gt;&lt;p style=&quot;margin:0px;margin-left:4px;&quot;&gt;&lt;span style=&quot;background-color: initial;&quot;&gt;- _repository: ComicCharacterRepository&lt;/span&gt;&lt;/p&gt;&lt;hr size=&quot;1&quot;&gt;&lt;p style=&quot;margin:0px;margin-left:4px;&quot;&gt;&lt;br&gt;&lt;/p&gt;" style="verticalAlign=top;align=left;overflow=fill;html=1;whiteSpace=wrap;fillColor=#dae8fc;strokeColor=#6c8ebf;" parent="1" vertex="1">
          <mxGeometry x="1140" y="387.5" width="280" height="85" as="geometry" />
        </mxCell>
        <mxCell id="tJJGAUzT6cWzQBmBwBKc-6" value="" style="endArrow=block;dashed=1;endFill=0;endSize=12;html=1;rounded=0;exitX=0.5;exitY=1;exitDx=0;exitDy=0;entryX=0.5;entryY=0;entryDx=0;entryDy=0;" parent="1" source="okOCDHLRPJiZz7jQsN5--22" target="tJJGAUzT6cWzQBmBwBKc-3" edge="1">
          <mxGeometry width="160" relative="1" as="geometry">
            <mxPoint x="1290" y="-330" as="sourcePoint" />
            <mxPoint x="1290" y="-270" as="targetPoint" />
          </mxGeometry>
        </mxCell>
        <mxCell id="tJJGAUzT6cWzQBmBwBKc-7" value="Use" style="endArrow=open;endSize=12;dashed=1;html=1;rounded=0;entryX=0.5;entryY=1;entryDx=0;entryDy=0;exitX=0.5;exitY=0;exitDx=0;exitDy=0;edgeStyle=orthogonalEdgeStyle;" parent="1" source="tJJGAUzT6cWzQBmBwBKc-5" target="tJJGAUzT6cWzQBmBwBKc-3" edge="1">
          <mxGeometry width="160" relative="1" as="geometry">
            <mxPoint x="1150" y="-5" as="sourcePoint" />
            <mxPoint x="610" y="-155" as="targetPoint" />
          </mxGeometry>
        </mxCell>
        <mxCell id="tJJGAUzT6cWzQBmBwBKc-8" value="" style="endArrow=block;dashed=1;endFill=0;endSize=12;html=1;rounded=0;exitX=0.5;exitY=1;exitDx=0;exitDy=0;entryX=0.5;entryY=0;entryDx=0;entryDy=0;" parent="1" source="tJJGAUzT6cWzQBmBwBKc-5" target="tJJGAUzT6cWzQBmBwBKc-4" edge="1">
          <mxGeometry width="160" relative="1" as="geometry">
            <mxPoint x="1290" y="50" as="sourcePoint" />
            <mxPoint x="1290" y="216" as="targetPoint" />
          </mxGeometry>
        </mxCell>
        <mxCell id="Y-IdLZWk8gGN1Q71fZQt-1" value="&lt;p style=&quot;margin:0px;margin-top:4px;text-align:center;&quot;&gt;&lt;i&gt;&amp;lt;&amp;lt;Interface&amp;gt;&amp;gt;&lt;/i&gt;&lt;br&gt;&lt;b&gt;JsonConverter&amp;lt;T&amp;gt;&lt;/b&gt;&lt;/p&gt;&lt;hr size=&quot;1&quot;&gt;&lt;p style=&quot;margin:0px;margin-left:4px;&quot;&gt;&lt;br&gt;&lt;/p&gt;&lt;hr size=&quot;1&quot;&gt;&lt;p style=&quot;margin:0px;margin-left:4px;&quot;&gt;+ fromJson(Map&amp;lt;String, dynamic&amp;gt; json): T&lt;br&gt;&lt;/p&gt;" style="verticalAlign=top;align=left;overflow=fill;html=1;whiteSpace=wrap;fillColor=#d5e8d4;strokeColor=#82b366;" parent="1" vertex="1">
          <mxGeometry x="1440" y="-560" width="240" height="105" as="geometry" />
        </mxCell>
        <mxCell id="Y-IdLZWk8gGN1Q71fZQt-2" value="" style="endArrow=block;dashed=1;endFill=0;endSize=12;html=1;rounded=0;exitX=1;exitY=0.5;exitDx=0;exitDy=0;entryX=0.5;entryY=1;entryDx=0;entryDy=0;edgeStyle=orthogonalEdgeStyle;" parent="1" source="okOCDHLRPJiZz7jQsN5--15" target="Y-IdLZWk8gGN1Q71fZQt-1" edge="1">
          <mxGeometry width="160" relative="1" as="geometry">
            <mxPoint x="1290" y="-330" as="sourcePoint" />
            <mxPoint x="1290" y="-270" as="targetPoint" />
          </mxGeometry>
        </mxCell>
      </root>
    </mxGraphModel>
  </diagram>
</mxfile>
